<svg width="14" height="14" viewBox="0 0 14 14" fill="none" xmlns="http://www.w3.org/2000/svg">
<path d="M6.3 0.7V6.3H0.7C0.514348 6.3 0.336301 6.37375 0.205025 6.50503C0.0737498 6.6363 0 6.81435 0 7C0 7.18565 0.0737498 7.3637 0.205025 7.49497C0.336301 7.62625 0.514348 7.7 0.7 7.7H6.3V13.3C6.3 13.4857 6.37375 13.6637 6.50503 13.795C6.6363 13.9263 6.81435 14 7 14C7.18565 14 7.3637 13.9263 7.49497 13.795C7.62625 13.6637 7.7 13.4857 7.7 13.3V0.7C7.7 0.514348 7.62625 0.336301 7.49497 0.205025C7.3637 0.0737498 7.18565 0 7 0C6.81435 0 6.6363 0.0737498 6.50503 0.205025C6.37375 0.336301 6.3 0.514348 6.3 0.7V0.7Z" fill="#F71A2C"/>
<path d="M13.3 6.29999H9.37999C8.99339 6.29999 8.67999 6.61339 8.67999 6.99999C8.67999 7.38659 8.99339 7.69999 9.37999 7.69999H13.3C13.6866 7.69999 14 7.38659 14 6.99999C14 6.61339 13.6866 6.29999 13.3 6.29999Z" fill="#F71A2C"/>
</svg>
