<svg width="26" height="14" viewBox="0 0 26 14" fill="none" xmlns="http://www.w3.org/2000/svg">
<path d="M25.6591 0H0.00751953C0.00336661 0 0 0.00183633 0 0.00410156V13.9959C0 13.9982 0.00336661 14 0.00751953 14H25.6591C25.6633 14 25.6667 13.9982 25.6667 13.9959V0.00410156C25.6667 0.00183633 25.6633 0 25.6591 0Z" fill="#F5C518"/>
<path d="M5.21355 10.7188V3.5H3.20834V10.7188H5.21355ZM9.47462 3.5L9.02345 6.85872L8.7728 5.05404L8.52215 3.5H6.01564V10.7188H7.72006V5.95638L8.42189 10.7188H9.67514L10.3268 5.85612V10.7188H12.0313V3.5H9.47462ZM12.8333 10.7188V3.5H15.9414C16.6934 3.5 17.2448 4.05143 17.2448 4.75326V9.46549C17.2448 10.1673 16.6934 10.7188 15.9414 10.7188H12.8333ZM15.1895 4.80339L14.7383 4.75326V9.46549C14.9889 9.46549 15.1895 9.41536 15.2396 9.3151C15.3399 9.21484 15.3399 8.91406 15.3399 8.41276V5.60547V5.00391L15.1895 4.80339ZM21.0046 5.30469H21.155C21.8568 5.30469 22.4583 5.85612 22.4583 6.55794V9.46549C22.4583 10.1673 21.8568 10.7188 21.155 10.7188H21.0046C20.6035 10.7188 20.2025 10.5182 19.9518 10.1673L19.8516 10.6185H18.0469V3.5H19.9518V5.80599C20.2025 5.50521 20.6035 5.30469 21.0046 5.30469ZM20.6035 8.8138V7.10938L20.5534 6.55794C20.5033 6.45768 20.3529 6.40755 20.2526 6.40755C20.1524 6.40755 20.002 6.45768 19.9518 6.55794V9.41536C20.002 9.51562 20.1524 9.56575 20.2526 9.56575C20.3529 9.56575 20.5534 9.51562 20.5534 9.41536L20.6035 8.8138Z" fill="black"/>
</svg>
