<?xml version="1.0" standalone="no"?>
<!DOCTYPE svg PUBLIC "-//W3C//DTD SVG 20010904//EN"
 "http://www.w3.org/TR/2001/REC-SVG-20010904/DTD/svg10.dtd">
<svg version="1.0" xmlns="http://www.w3.org/2000/svg"
 width="986.000000pt" height="281.000000pt" viewBox="0 0 986.000000 281.000000"
 preserveAspectRatio="xMidYMid meet">
<metadata>
Created by potrace 1.16, written by Peter Selinger 2001-2019
</metadata>
<g transform="translate(0.000000,281.000000) scale(0.100000,-0.100000)"
fill="#000000" stroke="none">
<path d="M90 1395 l0 -1225 4845 0 4845 0 0 1225 0 1225 -4845 0 -4845 0 0
-1225z m9508 -2 l-3 -1048 -4665 0 -4665 0 -3 1048 -2 1047 4670 0 4670 0 -2
-1047z"/>
<path d="M2255 2160 c-295 -47 -503 -232 -585 -520 -33 -116 -38 -306 -11
-435 32 -156 92 -268 200 -375 138 -137 263 -188 477 -197 158 -7 255 12 383
74 167 80 290 230 350 426 56 185 42 451 -34 622 -84 190 -267 343 -465 389
-85 20 -239 27 -315 16z m264 -165 c89 -21 173 -69 240 -136 113 -113 165
-257 164 -459 0 -206 -45 -338 -154 -454 -133 -142 -340 -198 -543 -146 -105
27 -169 63 -243 137 -110 110 -163 262 -163 465 0 184 49 329 147 439 72 80
192 146 293 162 61 10 201 5 259 -8z"/>
<path d="M540 1395 l0 -745 90 0 90 0 0 293 0 293 83 89 83 89 238 -382 237
-382 105 0 c101 0 104 1 94 19 -8 16 -208 337 -498 798 l-51 82 226 243 c124
134 248 267 276 296 l51 52 -111 0 -112 0 -308 -335 -308 -334 -3 334 -2 335
-90 0 -90 0 0 -745z"/>
<path d="M3200 2070 l0 -70 220 0 220 0 0 -675 0 -675 90 0 90 0 0 675 0 675
220 0 220 0 0 70 0 70 -530 0 -530 0 0 -70z"/>
<path d="M5050 1395 l0 -745 90 0 90 0 0 340 0 340 310 0 310 0 0 70 0 70
-310 0 -310 0 0 265 0 265 365 0 365 0 0 70 0 70 -455 0 -455 0 0 -745z"/>
<path d="M6190 1395 l0 -746 88 3 87 3 3 743 2 742 -90 0 -90 0 0 -745z"/>
<path d="M6690 1395 l0 -745 433 2 432 3 3 68 3 67 -351 0 -350 0 0 675 0 675
-85 0 -85 0 0 -745z"/>
<path d="M7810 1395 l0 -745 85 0 85 0 2 585 3 585 246 -472 247 -473 69 -3
69 -3 243 468 c134 257 247 472 252 477 5 6 9 -226 9 -577 l0 -587 85 0 85 0
0 745 0 745 -103 0 -104 0 -264 -515 c-145 -283 -266 -515 -270 -515 -3 0
-125 231 -270 513 l-265 512 -102 3 -102 3 0 -746z"/>
</g>
</svg>
