<svg width="17" height="17" viewBox="0 0 17 17" fill="none" xmlns="http://www.w3.org/2000/svg">
<path d="M14.2375 13.2812H2.76251C2.33751 13.2812 1.96564 13.0687 1.75314 12.6969C1.54064 12.325 1.59376 11.9 1.80626 11.5281L2.39064 10.625C3.34689 9.19062 3.82501 7.54375 3.82501 5.84375C3.82501 3.87812 5.10001 2.07188 6.95939 1.43438C7.27814 0.85 7.86251 0.53125 8.50001 0.53125C9.13751 0.53125 9.72189 0.85 10.0406 1.43438C11.9 2.07188 13.175 3.87812 13.175 5.84375C13.175 7.54375 13.6531 9.19062 14.6094 10.625L15.1938 11.5281C15.4063 11.9 15.4594 12.325 15.2469 12.6969C15.0875 13.0687 14.6625 13.2812 14.2375 13.2812Z" fill="white"/>
<path d="M5.89685 14.3438C6.16248 15.5656 7.22498 16.4688 8.49998 16.4688C9.77498 16.4688 10.8375 15.5656 11.1031 14.3438H5.89685Z" fill="url(#paint0_linear_18_279)"/>
<defs>
<linearGradient id="paint0_linear_18_279" x1="8.49998" y1="14.3438" x2="8.49998" y2="16.4688" gradientUnits="userSpaceOnUse">
<stop stop-color="#424242"/>
<stop offset="1" stop-color="white"/>
</linearGradient>
</defs>
</svg>
