<svg width="13" height="13" viewBox="0 0 13 13" fill="none" xmlns="http://www.w3.org/2000/svg">
<g clip-path="url(#clip0_18_272)">
<path d="M12.8097 11.8871L10.0569 9.13492C9.92161 9.00012 9.73836 8.92443 9.54732 8.92443C9.35629 8.92443 9.17303 9.00012 9.0377 9.13492C8.31233 9.83613 7.37481 10.277 6.37199 10.3884C5.36918 10.4998 4.35773 10.2754 3.49611 9.75051C2.63448 9.22559 1.97136 8.42974 1.61062 7.48764C1.24988 6.54553 1.21191 5.5104 1.50265 4.5444C1.79339 3.57841 2.39643 2.73613 3.21728 2.14951C4.03813 1.5629 5.03042 1.26509 6.0387 1.30274C7.04698 1.3404 8.01429 1.71139 8.78908 2.35759C9.56387 3.00379 10.1024 3.88871 10.3202 4.87369C10.4763 5.58828 10.4603 6.32974 10.2733 7.03688C10.2512 7.11971 10.2457 7.20607 10.257 7.29104C10.2683 7.37601 10.2962 7.45793 10.3392 7.5321C10.3822 7.60628 10.4393 7.67127 10.5074 7.72336C10.5755 7.77545 10.6532 7.81363 10.736 7.8357C10.9033 7.88029 11.0815 7.85659 11.2313 7.76984C11.3812 7.68308 11.4904 7.54037 11.535 7.37309C11.8941 6.02352 11.7607 4.59016 11.1585 3.33007C10.5563 2.06999 9.52482 1.0656 8.24901 0.497033C6.97321 -0.0715329 5.53654 -0.167085 4.19665 0.227513C2.85676 0.622112 1.7013 1.48105 0.937485 2.65028C0.173669 3.81952 -0.148538 5.22257 0.0286478 6.60781C0.205833 7.99306 0.87082 9.26989 1.90435 10.2093C2.93789 11.1487 4.27236 11.6893 5.66845 11.7341C7.06454 11.7789 8.43092 11.3249 9.52256 10.4537L11.8869 12.815C11.9474 12.8756 12.0194 12.9238 12.0985 12.9566C12.1777 12.9895 12.2626 13.0064 12.3483 13.0064C12.434 13.0064 12.5189 12.9895 12.5981 12.9566C12.6773 12.9238 12.7492 12.8756 12.8097 12.815C12.8712 12.7543 12.92 12.6821 12.9533 12.6025C12.9866 12.5228 13.0038 12.4374 13.0038 12.351C13.0038 12.2647 12.9866 12.1792 12.9533 12.0996C12.92 12.02 12.8712 11.9477 12.8097 11.8871V11.8871Z" fill="#B6B6B6"/>
<path d="M7.82032 7.81876C7.7162 7.72205 7.58289 7.66266 7.44133 7.64992C7.29978 7.63718 7.15801 7.67182 7.03829 7.74839C6.70033 7.95688 6.31264 8.07097 5.9156 8.07876C5.51856 8.08655 5.1267 7.98777 4.78082 7.7927C4.66356 7.72429 4.5273 7.6957 4.39243 7.7112C4.25756 7.72671 4.13134 7.78548 4.03267 7.87871L3.99357 7.91519C3.92356 7.98188 3.86989 8.06382 3.83674 8.15463C3.8036 8.24545 3.79186 8.34269 3.80246 8.43878C3.81305 8.53487 3.84569 8.62723 3.89783 8.70864C3.94997 8.79006 4.0202 8.85834 4.10305 8.90818C4.66035 9.22942 5.2948 9.39241 5.93796 9.37955C6.58111 9.36669 7.20854 9.17847 7.75254 8.8352C7.83202 8.78471 7.89914 8.71701 7.94892 8.63709C7.9987 8.55717 8.02987 8.46709 8.04013 8.3735C8.05039 8.27991 8.03948 8.18521 8.0082 8.09641C7.97692 8.00761 7.92607 7.92697 7.85942 7.86046L7.82032 7.81876Z" fill="#F71A2C"/>
</g>
<defs>
<clipPath id="clip0_18_272">
<rect width="13" height="13" fill="white"/>
</clipPath>
</defs>
</svg>
